<?xml version="1.0" encoding="UTF-8"?><svg xmlns="http://www.w3.org/2000/svg" width="1000" height="1000" xmlns:xlink="http://www.w3.org/1999/xlink" viewBox="0 0 1000 1000"><defs><style>.cls-1{fill:#fff;}.cls-2{fill:url(#_未命名的渐变_857);}.cls-3{fill:none;stroke:#fff;stroke-miterlimit:8;stroke-width:12px;}</style><linearGradient id="_未命名的渐变_857" x1="10.67" y1="989.33" x2="982.78" y2="17.22" gradientUnits="userSpaceOnUse"><stop offset="0" stop-color="#614287"/><stop offset=".53" stop-color="#ac75f0"/><stop offset="1" stop-color="#614287"/></linearGradient></defs><g id="_图层_1"><rect class="cls-2" width="1000" height="1000"/><rect x="36.1" y="36.1" width="927.79" height="927.79"/></g><g id="_图层_3"><path class="cls-1" d="M210.32,258.18h290.37v483.96H210.32v-483.96Z"/><rect x="251.28" y="296.9" width="58.07" height="58.07"/><rect x="251.28" y="413.05" width="58.07" height="58.07"/><rect x="251.28" y="529.2" width="58.07" height="58.07"/><rect x="251.28" y="645.35" width="58.07" height="58.07"/><line class="cls-3" x1="500.69" y1="137.2" x2="500.69" y2="863.13"/><polygon class="cls-1" points="500.69 127.22 529.73 175.62 500.69 224.01 471.66 175.62 500.69 127.22"/><polygon class="cls-1" points="500.69 776.21 529.73 824.6 500.69 873 471.66 824.6 500.69 776.21"/><rect class="cls-1" x="500.69" y="258.18" width="169.39" height="29.04"/><rect class="cls-1" x="703.96" y="258.18" width="29.04" height="29.04"/><rect class="cls-1" x="500.69" y="316.26" width="96.79" height="19.36"/><rect class="cls-1" x="621.68" y="316.26" width="120.99" height="19.36"/><rect class="cls-1" x="500.69" y="374.33" width="145.19" height="29.04"/><rect class="cls-1" x="670.08" y="374.33" width="29.04" height="29.04"/><rect class="cls-1" x="500.69" y="432.41" width="193.58" height="19.36"/><rect class="cls-1" x="718.47" y="432.41" width="58.07" height="19.36"/><rect class="cls-1" x="500.69" y="480.81" width="266.18" height="38.72"/><rect class="cls-1" x="795.82" y="485.56" width="29.21" height="29.21"/><rect class="cls-1" x="500.69" y="548.56" width="72.59" height="19.36"/><rect class="cls-1" x="597.49" y="548.56" width="120.99" height="19.36"/><rect class="cls-1" x="742.67" y="548.56" width="38.72" height="19.36"/><rect class="cls-1" x="500.69" y="596.95" width="169.39" height="29.04"/><rect class="cls-1" x="694.28" y="596.95" width="29.04" height="29.04"/><rect class="cls-1" x="500.69" y="655.03" width="241.98" height="19.36"/><rect class="cls-1" x="500.69" y="713.1" width="120.99" height="29.04"/><rect class="cls-1" x="645.88" y="713.1" width="72.59" height="29.04"/><rect class="cls-1" x="737.83" y="713.1" width="29.04" height="29.04"/></g></svg>